HIERARCHY
ROOT Hip
{
  OFFSET 0.000000 0.000000 0.000000
  CHANNELS 6 Xposition Yposition Zposition Zrotation Xrotation Yrotation
  JOINT RHip
  {
    OFFSET 0.000000 0.000000 0.000000
    CHANNELS 3 Xposition Yposition Zposition
    End Site
    {
      OFFSET 0.000000 0.100000 0.000000
    }
  }
  JOINT RKnee
  {
    OFFSET 0.000000 0.000000 0.000000
    CHANNELS 3 Xposition Yposition Zposition
    End Site
    {
      OFFSET 0.000000 0.100000 0.000000
    }
  }
  JOINT RFoot
  {
    OFFSET 0.000000 0.000000 0.000000
    CHANNELS 3 Xposition Yposition Zposition
    End Site
    {
      OFFSET 0.000000 0.100000 0.000000
    }
  }
  JOINT LHip
  {
    OFFSET 0.000000 0.000000 0.000000
    CHANNELS 3 Xposition Yposition Zposition
    End Site
    {
      OFFSET 0.000000 0.100000 0.000000
    }
  }
  JOINT LKnee
  {
    OFFSET 0.000000 0.000000 0.000000
    CHANNELS 3 Xposition Yposition Zposition
    End Site
    {
      OFFSET 0.000000 0.100000 0.000000
    }
  }
  JOINT LFoot
  {
    OFFSET 0.000000 0.000000 0.000000
    CHANNELS 3 Xposition Yposition Zposition
    End Site
    {
      OFFSET 0.000000 0.100000 0.000000
    }
  }
  JOINT Spine
  {
    OFFSET 0.000000 0.000000 0.000000
    CHANNELS 3 Xposition Yposition Zposition
    End Site
    {
      OFFSET 0.000000 0.100000 0.000000
    }
  }
  JOINT Thorax
  {
    OFFSET 0.000000 0.000000 0.000000
    CHANNELS 3 Xposition Yposition Zposition
    End Site
    {
      OFFSET 0.000000 0.100000 0.000000
    }
  }
  JOINT Nose
  {
    OFFSET 0.000000 0.000000 0.000000
    CHANNELS 3 Xposition Yposition Zposition
    End Site
    {
      OFFSET 0.000000 0.100000 0.000000
    }
  }
  JOINT Head
  {
    OFFSET 0.000000 0.000000 0.000000
    CHANNELS 3 Xposition Yposition Zposition
    End Site
    {
      OFFSET 0.000000 0.100000 0.000000
    }
  }
  JOINT LShoulder
  {
    OFFSET 0.000000 0.000000 0.000000
    CHANNELS 3 Xposition Yposition Zposition
    End Site
    {
      OFFSET 0.000000 0.100000 0.000000
    }
  }
  JOINT LElbow
  {
    OFFSET 0.000000 0.000000 0.000000
    CHANNELS 3 Xposition Yposition Zposition
    End Site
    {
      OFFSET 0.000000 0.100000 0.000000
    }
  }
  JOINT LWrist
  {
    OFFSET 0.000000 0.000000 0.000000
    CHANNELS 3 Xposition Yposition Zposition
    End Site
    {
      OFFSET 0.000000 0.100000 0.000000
    }
  }
  JOINT RShoulder
  {
    OFFSET 0.000000 0.000000 0.000000
    CHANNELS 3 Xposition Yposition Zposition
    End Site
    {
      OFFSET 0.000000 0.100000 0.000000
    }
  }
  JOINT RElbow
  {
    OFFSET 0.000000 0.000000 0.000000
    CHANNELS 3 Xposition Yposition Zposition
    End Site
    {
      OFFSET 0.000000 0.100000 0.000000
    }
  }
  JOINT RWrist
  {
    OFFSET 0.000000 0.000000 0.000000
    CHANNELS 3 Xposition Yposition Zposition
    End Site
    {
      OFFSET 0.000000 0.100000 0.000000
    }
  }
}
MOTION
Frames: 13
Frame Time: 0.033333
-0.000000 0.726885 0.000021 0.000000 0.000000 0.000000 -0.076422 0.001415 0.024838 -0.071335 0.415836 0.088937 -0.030515 0.811285 0.209762 0.076420 -0.001423 -0.024867 0.032895 0.408766 0.068030 0.015529 0.808727 0.188630 0.017064 -0.211302 -0.037484 0.020719 -0.460866 -0.068796 0.021157 -0.585172 -0.120516 0.020381 -0.589013 -0.060575 0.108573 -0.408711 -0.075345 0.170075 -0.185328 -0.006182 0.157947 0.039065 -0.027567 -0.069746 -0.418628 -0.028380 -0.172037 -0.219386 0.049459 -0.222053 -0.234642 -0.062886
-0.000000 0.726885 0.000019 0.000000 0.000000 0.000000 -0.079430 0.001979 0.022733 -0.074812 0.414872 0.086813 -0.035345 0.811413 0.208575 0.079427 -0.001986 -0.022757 0.039703 0.409688 0.069660 0.013129 0.807781 0.197334 0.017785 -0.209700 -0.038385 0.021744 -0.458389 -0.068484 0.021213 -0.589132 -0.117785 0.027438 -0.588193 -0.053128 0.113804 -0.406080 -0.073789 0.190375 -0.187992 -0.000512 0.186222 0.040705 -0.025673 -0.072306 -0.415585 -0.029498 -0.173025 -0.221604 0.048045 -0.226263 -0.242274 -0.074594
-0.000000 0.726885 0.000018 0.000000 0.000000 0.000000 -0.071942 0.002189 0.021597 -0.073601 0.413124 0.090799 -0.040100 0.811432 0.207726 0.071938 -0.002195 -0.021620 0.039304 0.408883 0.076356 0.006769 0.808009 0.201599 0.018483 -0.209765 -0.038766 0.021526 -0.457757 -0.067636 0.021152 -0.593463 -0.110568 0.031135 -0.586942 -0.051666 0.105866 -0.405109 -0.072689 0.189283 -0.188518 -0.003629 0.189378 0.030313 -0.027685 -0.063037 -0.414197 -0.029876 -0.149714 -0.217880 0.054512 -0.198623 -0.217645 -0.051377
-0.000000 0.726885 0.000018 0.000000 0.000000 0.000000 -0.061224 0.001782 0.021452 -0.071781 0.411674 0.096733 -0.046386 0.811960 0.206543 0.061219 -0.001787 -0.021476 0.034399 0.407884 0.083410 -0.001339 0.808504 0.203657 0.018843 -0.210769 -0.039021 0.020401 -0.457907 -0.067236 0.020973 -0.596659 -0.103461 0.032398 -0.585912 -0.054990 0.092626 -0.404829 -0.072110 0.174697 -0.186821 -0.007458 0.176276 0.018253 -0.024659 -0.050617 -0.412659 -0.030648 -0.118435 -0.209946 0.061274 -0.158548 -0.177702 -0.014754
-0.000000 0.726885 0.000019 0.000000 0.000000 0.000000 -0.052613 0.001459 0.020887 -0.068762 0.410968 0.099817 -0.054000 0.813330 0.203923 0.052607 -0.001463 -0.020914 0.028422 0.407011 0.090253 -0.006964 0.808897 0.205635 0.018582 -0.211774 -0.039259 0.018178 -0.458429 -0.066415 0.019831 -0.599471 -0.097943 0.030507 -0.586475 -0.058452 0.078381 -0.405099 -0.070984 0.150782 -0.184185 -0.009672 0.151145 0.009393 -0.021376 -0.039135 -0.410430 -0.032131 -0.081339 -0.198162 0.061469 -0.108655 -0.130058 0.024587
-0.000000 0.726885 0.000022 0.000000 0.000000 0.000000 -0.046207 0.001769 0.018495 -0.064000 0.410656 0.099714 -0.061656 0.815582 0.201436 0.046200 -0.001773 -0.018529 0.021607 0.406019 0.097335 -0.014165 0.810566 0.203724 0.017559 -0.212411 -0.039413 0.015649 -0.459450 -0.065482 0.018524 -0.602491 -0.093813 0.025042 -0.588456 -0.060909 0.064772 -0.406342 -0.068679 0.119611 -0.181420 -0.011795 0.117432 0.005080 -0.018149 -0.027905 -0.408421 -0.035433 -0.037756 -0.185901 0.054377 -0.051762 -0.083424 0.060852
-0.000000 0.726885 0.000024 0.000000 0.000000 0.000000 -0.040442 0.002265 0.014275 -0.059942 0.410928 0.096562 -0.067784 0.818685 0.197925 0.040435 -0.002269 -0.014316 0.013456 0.405510 0.102411 -0.026623 0.813468 0.197022 0.016443 -0.212292 -0.039980 0.014423 -0.459782 -0.066643 0.018277 -0.605146 -0.091082 0.018149 -0.590134 -0.063805 0.052431 -0.407126 -0.066921 0.080268 -0.179166 -0.011734 0.074141 0.005569 -0.006267 -0.016202 -0.405703 -0.042844 0.006484 -0.177781 0.038868 0.004249 -0.043650 0.082450
-0.000000 0.726885 0.000032 0.000000 0.000000 0.000000 -0.036717 0.003080 0.008889 -0.057082 0.412505 0.089267 -0.070281 0.821211 0.190742 0.036710 -0.003084 -0.008946 0.008944 0.406131 0.104139 -0.040219 0.816064 0.186999 0.015239 -0.211229 -0.040804 0.014121 -0.457752 -0.069782 0.018770 -0.607088 -0.090302 0.012232 -0.588418 -0.066348 0.042063 -0.405351 -0.065711 0.036955 -0.178493 -0.009621 0.022020 0.012491 0.011752 -0.006359 -0.399712 -0.054122 0.048499 -0.172923 0.011931 0.066305 -0.003924 0.078395
-0.000000 0.726885 0.000045 0.000000 0.000000 0.000000 -0.037423 0.004707 0.001598 -0.055065 0.414226 0.080392 -0.069927 0.819844 0.185082 0.037416 -0.004712 -0.001684 0.012583 0.406311 0.105704 -0.056300 0.814265 0.176392 0.014052 -0.210137 -0.041296 0.015540 -0.453989 -0.073533 0.019105 -0.608148 -0.093542 0.007997 -0.582248 -0.068097 0.038347 -0.401700 -0.062358 0.001930 -0.178492 -0.008166 -0.025682 0.025099 0.024882 -0.001083 -0.391270 -0.068488 0.086456 -0.169885 -0.024349 0.142444 0.038253 0.046233
-0.000000 0.726885 0.000060 0.000000 0.000000 0.000000 -0.043962 0.006813 -0.006308 -0.057979 0.414271 0.073495 -0.069981 0.814335 0.186039 0.043955 -0.006820 0.006193 0.022642 0.405297 0.107390 -0.078743 0.806108 0.170255 0.013980 -0.209690 -0.041317 0.019647 -0.450449 -0.077196 0.017506 -0.607507 -0.101574 0.004527 -0.575598 -0.068307 0.046499 -0.398242 -0.057323 -0.011247 -0.176982 -0.007354 -0.047229 0.037143 0.025658 -0.003629 -0.383921 -0.083647 0.107058 -0.168106 -0.061301 0.219981 0.073279 -0.004485
-0.000000 0.726885 0.000068 0.000000 0.000000 0.000000 -0.054994 0.008481 -0.010927 -0.067151 0.414405 0.067939 -0.072485 0.809512 0.188940 0.054986 -0.008489 0.010795 0.033460 0.404938 0.105440 -0.101352 0.797047 0.168559 0.015857 -0.209285 -0.041367 0.025934 -0.447770 -0.081275 0.014374 -0.605226 -0.112525 0.001787 -0.572381 -0.067884 0.065229 -0.395194 -0.055186 -0.004210 -0.174500 -0.007912 -0.042544 0.044716 0.013508 -0.013388 -0.378816 -0.095567 0.100326 -0.165987 -0.086432 0.281021 0.097919 -0.051642
-0.000000 0.726886 0.000072 0.000000 0.000000 0.000000 -0.066996 0.009277 -0.011621 -0.077427 0.416190 0.062840 -0.078148 0.808971 0.188928 0.066988 -0.009287 0.011481 0.042487 0.405816 0.101261 -0.115461 0.791599 0.171591 0.019869 -0.208715 -0.041435 0.034974 -0.445670 -0.084668 0.012835 -0.603272 -0.122793 0.001876 -0.570992 -0.067014 0.088603 -0.392613 -0.056225 0.012298 -0.172218 -0.010186 -0.027992 0.050902 -0.003666 -0.022758 -0.375791 -0.102375 0.078666 -0.163768 -0.096862 0.319238 0.113788 -0.081478
-0.000000 0.726886 0.000074 0.000000 0.000000 0.000000 -0.073123 0.009379 -0.008908 -0.084696 0.418265 0.061444 -0.087515 0.810892 0.188818 0.073115 -0.009389 0.008764 0.043783 0.405948 0.099433 -0.119483 0.789879 0.179695 0.024959 -0.208318 -0.041719 0.043890 -0.444429 -0.085736 0.012214 -0.603859 -0.127292 0.003913 -0.568952 -0.065438 0.104187 -0.391054 -0.059073 0.023195 -0.170302 -0.015060 -0.017482 0.057194 -0.016311 -0.023483 -0.375490 -0.103111 0.062865 -0.161560 -0.097816 0.335490 0.120349 -0.092024
